# xmcd
#
# Track frame offsets:
#	150
#	15770
#	32985
#	46570
#	62140
#	81365
#	94727
#	111630
#	132937
#	148572
#	161860
#	180140
#	198605
#	211287
#	223200
#	237065
#
# Disc length: 3331 seconds
#
# Revision: 2
# Processed by: cddbd v1.5.1PL0 Copyright (c) Steve Scherf et al.
# Submitted via: audiograbber 1.83.01
#
DISCID=df0d0110
DTITLE=Restless Heart - Country Legends
DYEAR=2003
DGENRE=Country
TTITLE0=I Want Everyone To Cry
TTITLE1=(Back To The) Heartbreak Kid
TTITLE2=Til I Loved You
TTITLE3=That Rock Won't Roll
TTITLE4=I'll Still Be Loving You
TTITLE5=Why Does It Have To Be (Wrong Or Right)
TTITLE6=Wheels
TTITLE7=Bluest Eyes In Texas
TTITLE8=A Tender Lie
TTITLE9=Hummingbird
TTITLE10=Say What's In Your Heart
TTITLE11=We Owned This Town
TTITLE12=We Got The Love
TTITLE13=You Can Depend On Me
TTITLE14=She's Coming Home
TTITLE15=Mending Fences
EXTD=YEAR: 2003
EXTT0=
EXTT1=
EXTT2=
EXTT3=
EXTT4=
EXTT5=
EXTT6=
EXTT7=
EXTT8=
EXTT9=
EXTT10=
EXTT11=
EXTT12=
EXTT13=
EXTT14=
EXTT15=
PLAYORDER=
